<svg xmlns="http://www.w3.org/2000/svg" width="400" height="100" viewBox="0,0,400,100"><rect width="100%" height="100%" fill="#f0f0f0"/><path fill="#e433e4" d="M106.67 69.13L106.77 69.23L106.74 69.20Q101.62 69.46 100.39 66.56L100.37 66.54L100.41 66.58Q101.34 65.37 103.29 63.13L103.36 63.20L103.29 63.13Q103.96 65.70 107.72 65.85L107.77 65.90L107.63 65.76Q111.93 65.92 113.98 64.26L114.00 64.28L114.04 64.32Q115.75 62.26 115.65 58.89L115.60 58.83L115.58 58.81Q115.47 52.57 109.48 52.85L109.39 52.77L109.50 52.88Q105.92 53.01 103.73 54.58L103.79 54.64L103.27 54.31L103.14 54.28L103.05 54.18Q103.55 50.31 103.41 46.88L103.47 46.94L103.35 46.82Q103.17 43.50 102.74 39.36L102.85 39.47L102.92 39.53Q107.45 40.69 112.21 40.55L112.14 40.48L112.14 40.48Q116.85 40.33 121.32 38.76L121.40 38.84L120.57 40.63L120.64 40.70Q120.23 41.62 119.99 42.66L119.96 42.63L120.11 42.78Q116.21 44.07 111.35 44.07L111.35 44.07L111.37 44.09Q109.51 44.04 107.65 43.85L107.63 43.82L107.57 43.76Q107.53 44.67 107.10 50.24L107.11 50.25L107.15 50.29Q108.18 49.70 110.75 49.51L110.81 49.57L110.76 49.52Q115.32 49.70 117.13 51.80L117.23 51.90L117.20 51.87Q118.98 53.84 119.31 58.65L119.21 58.54L119.14 58.47Q119.64 63.87 118.12 66.40L118.06 66.34L118.03 66.31Q115.60 68.78 111.46 69.06L111.35 68.95L111.34 68.95Q110.12 69.06 106.79 69.25ZM114.27 72.02L114.40 72.15L114.29 72.04Q118.61 72.17 120.99 70.79L120.95 70.75L120.90 70.70Q122.28 68.94 122.28 66.32L122.24 66.28L122.26 66.30Q122.23 62.42 121.04 57.28L121.08 57.32L120.99 57.23Q120.56 55.09 119.04 53.33L118.96 53.24L119.10 53.44L118.83 53.07L118.46 52.89L118.42 52.85Q117.99 51.90 117.19 51.04L117.15 51.01L117.28 51.18L117.25 51.15Q115.32 49.04 110.70 49.04L110.70 49.03L110.43 49.10L110.28 48.95Q110.42 48.27 110.65 46.89L110.63 46.87L110.68 46.92Q116.85 47.00 121.89 44.95L121.96 45.02L122.04 45.10Q122.48 43.25 123.67 39.73L123.57 39.63L121.05 40.92L121.14 41.01Q121.57 39.53 122.19 38.11L122.09 38.01L122.05 37.97Q117.26 39.79 112.12 39.88L112.26 40.03L112.11 39.88Q107.07 40.12 102.12 38.74L102.17 38.79L102.15 38.77Q102.89 44.17 102.89 49.69L102.99 49.80L102.94 49.74Q102.94 52.13 102.80 54.51L102.78 54.48L102.76 54.46Q103.05 54.66 103.77 55.04L103.96 55.24L103.93 55.21Q104.37 54.93 105.18 54.51L105.00 54.33L105.02 54.35Q105.07 55.39 104.78 57.29L104.80 57.32L104.83 57.34Q105.35 57.58 105.88 57.87L105.88 57.87L105.73 57.72Q109.34 55.67 111.67 55.67L111.67 55.67L111.66 55.66Q113.38 55.71 114.86 56.52L114.67 56.33L114.76 56.42Q115.14 57.66 115.19 58.85L115.28 58.94L115.34 59.00Q115.36 62.16 114.07 63.54L114.01 63.48L114.07 63.54Q112.38 65.09 109.58 65.37L109.50 65.30L109.60 65.39Q108.27 65.35 107.41 65.25L107.40 65.24L107.45 65.29Q106.46 65.21 105.51 64.78L105.57 64.84L105.34 64.37L105.20 64.52L105.29 64.61Q104.24 63.94 103.58 62.27L103.61 62.31L103.67 62.37Q102.03 64.15 99.93 66.82L99.88 66.76L99.89 66.77Q100.29 67.60 101.33 68.79L101.27 68.72L101.35 68.80Q102.67 71.08 106.20 71.70L106.07 71.58L106.15 71.66Q107.59 71.91 114.30 72.05Z"/><path fill="#d75a79" d="M166.11 56.10L166.07 56.06L166.06 56.05Q165.76 56.03 165.38 56.03L165.31 55.97L165.40 56.06Q163.76 56.08 161.95 57.13L161.84 57.02L161.87 57.05Q160.21 58.44 160.21 60.82L160.21 60.82L160.21 60.81Q160.18 65.07 162.08 66.73L162.09 66.73L162.14 66.79Q163.25 68.18 166.10 68.18L166.26 68.34L166.10 68.18Q166.60 68.40 166.98 68.40L167.00 68.41L166.97 68.39Q169.08 68.35 170.51 66.30L170.50 66.30L170.54 66.33Q171.86 64.47 171.76 62.23L171.63 62.10L171.67 62.14Q171.78 61.58 171.78 61.06L171.85 61.13L171.75 61.03Q171.72 58.76 170.00 57.31L170.13 57.44L169.97 57.27Q168.41 55.97 166.17 56.16ZM171.80 68.89L171.77 68.85L171.61 68.70Q170.45 71.20 165.79 71.34L165.81 71.36L165.84 71.40Q161.60 71.53 159.60 69.54L159.54 69.48L159.54 69.47Q157.64 67.19 156.64 61.20L156.79 61.35L156.74 61.29Q156.42 59.16 156.42 57.59L156.38 57.55L156.27 57.45Q156.30 55.24 157.20 53.91L157.30 54.00L157.16 53.87Q158.97 52.24 162.68 52.24L162.66 52.23L162.71 52.27Q170.55 52.22 172.93 55.45L172.96 55.48L172.89 55.41Q173.20 54.48 173.72 52.49L173.68 52.44L173.71 52.47Q175.38 52.19 178.42 51.19L178.34 51.11L178.26 51.03Q175.27 58.12 174.98 66.02L174.99 66.03L174.91 65.95Q174.77 73.80 177.43 81.08L177.37 81.02L177.29 80.94Q175.16 80.19 172.93 79.86L172.97 79.90L172.96 79.89Q171.77 74.90 171.63 68.71ZM172.63 80.28L172.58 80.22L172.76 80.41Q173.49 80.42 175.25 80.80L175.26 80.81L175.40 80.95Q175.58 81.75 176.29 83.51L176.34 83.56L176.43 83.65Q179.60 84.49 182.46 86.11L182.46 86.11L182.45 86.10Q177.34 77.81 177.34 67.15L177.29 67.09L177.31 67.11Q177.44 59.29 180.53 52.06L180.40 51.93L180.41 51.94Q179.52 52.28 177.80 53.09L177.92 53.21L177.88 53.17Q178.38 52.29 179.19 50.34L179.19 50.34L179.12 50.27Q177.14 50.91 173.15 52.00L173.20 52.06L173.15 52.01Q173.01 52.73 172.63 54.20L172.75 54.32L172.64 54.21Q170.12 51.84 162.46 51.64L162.41 51.59L162.41 51.59Q158.56 51.65 156.85 53.51L156.87 53.53L156.79 53.44Q155.83 54.87 155.88 57.25L155.87 57.24L155.90 57.26Q155.97 60.96 157.21 65.67L157.23 65.69L157.25 65.71Q157.97 68.62 159.11 69.81L159.17 69.87L159.60 70.30L159.67 70.36Q161.09 73.78 167.90 74.07L167.95 74.12L167.97 74.14Q169.18 74.11 171.46 73.73L171.46 73.73L171.47 73.74Q171.88 77.43 172.64 80.29ZM168.51 59.03L168.38 58.89L168.47 58.99Q169.87 59.05 170.92 59.44L170.89 59.41L170.82 59.33Q171.13 60.08 171.28 60.84L171.23 60.79L171.15 60.71Q171.32 61.45 171.22 62.21L171.31 62.30L171.30 62.29Q171.25 64.62 169.97 66.24L170.00 66.27L169.88 66.16Q168.50 68.01 166.17 67.77L166.11 67.71L166.26 67.87Q164.61 67.83 163.42 67.31L163.36 67.25L163.34 67.23Q162.99 66.31 162.99 64.78L162.95 64.74L162.99 64.78Q162.84 64.25 162.84 63.87L162.94 63.98L162.89 63.92Q162.86 61.71 164.53 60.25L164.63 60.36L164.49 60.22Q166.23 58.84 168.42 58.94Z"/><path fill="#c9e96c" d="M43.01 67.47L43.02 67.48L43.01 67.46Q45.32 64.45 51.27 55.36L51.20 55.28L51.21 55.30Q56.34 47.62 59.91 43.53L59.81 43.43L59.81 43.44Q57.24 43.86 54.62 43.86L54.65 43.89L54.58 43.83Q48.02 43.83 43.03 41.59L43.07 41.64L43.10 41.67Q42.18 39.18 41.32 37.23L41.40 37.30L41.38 37.29Q47.13 40.03 54.22 40.17L54.27 40.23L54.27 40.23Q60.65 40.28 67.12 37.90L67.19 37.96L67.03 37.81Q66.58 38.88 66.20 39.88L66.28 39.96L65.56 41.95L65.50 41.89Q61.60 46.37 56.61 53.65L56.67 53.72L52.52 59.75L52.54 59.77Q50.44 62.81 48.16 65.67L48.23 65.74L48.16 65.67Q52.37 64.97 56.51 65.07L56.37 64.93L56.45 65.02Q60.56 65.08 64.51 66.22L64.57 66.27L65.15 68.24L65.12 68.20Q65.41 69.21 65.84 70.26L65.92 70.34L65.98 70.40Q60.13 68.40 53.71 68.64L53.66 68.60L53.71 68.65Q47.24 68.84 41.63 71.36L41.60 71.34L41.54 71.28Q42.17 70.10 43.08 67.53ZM40.90 72.26L40.80 72.16L40.94 72.30Q42.32 71.39 43.31 71.05L43.36 71.09L43.46 71.20Q43.00 72.02 42.14 73.93L42.27 74.06L42.18 73.96Q49.42 71.40 56.89 71.68L56.86 71.66L56.73 71.53Q64.66 71.84 70.94 75.32L71.01 75.38L70.98 75.36Q69.27 72.41 68.27 69.69L68.23 69.65L68.22 69.64Q67.69 69.45 65.79 68.73L65.68 68.63L65.67 68.61Q65.47 67.71 64.95 65.85L64.93 65.83L64.90 65.79Q59.79 64.40 53.41 64.64L53.36 64.59L53.34 64.57Q56.12 61.26 60.55 54.31L60.52 54.28L60.45 54.21Q64.97 47.02 67.35 43.84L67.50 43.99L67.32 43.81Q68.01 42.11 69.29 38.73L69.31 38.75L69.37 38.82Q68.52 39.25 66.71 40.01L66.60 39.90L66.67 39.97Q67.15 39.02 68.05 37.12L67.94 37.01L67.97 37.03Q61.37 39.76 54.23 39.66L54.26 39.69L54.21 39.64Q46.67 39.43 40.48 36.29L40.53 36.33L40.55 36.36Q41.89 39.22 42.79 42.03L42.90 42.13L42.79 42.03Q44.30 42.82 45.30 43.10L45.32 43.13L45.34 43.14Q45.54 43.87 45.88 45.68L45.93 45.73L45.90 45.70Q50.55 47.02 56.64 46.79L56.73 46.88L56.74 46.88Q53.69 50.83 49.55 57.07L49.53 57.04L42.58 67.42L42.65 67.49Q42.10 68.98 40.81 72.17Z"/><path d="M14 58 C190 35,185 9,380 65" stroke="#9090e4" fill="none"/><path fill="#8669dd" d="M225.79 68.87L225.89 68.97L223.28 69.22L223.12 69.05Q222.59 69.09 221.37 69.16L221.42 69.21L221.39 69.19Q220.10 69.18 219.48 69.18L219.53 69.23L219.55 69.25Q217.44 69.18 216.16 68.14L216.28 68.26L216.15 68.13Q217.21 66.81 219.25 64.14L219.34 64.23L219.21 64.10Q220.77 66.04 223.53 65.76L223.71 65.93L223.66 65.88Q224.76 65.70 225.57 64.90L225.52 64.84L225.66 64.98Q226.37 64.07 226.23 62.98L226.17 62.92L226.20 62.95Q226.10 57.24 226.20 51.53L226.28 51.61L226.28 51.61Q226.21 45.74 226.88 39.98L226.86 39.96L226.97 40.08Q229.28 39.72 231.94 38.43L231.97 38.46L231.99 38.48Q229.73 46.97 229.73 56.02L229.66 55.94L229.57 55.85Q229.65 60.36 230.22 64.73L230.20 64.72L230.16 64.67Q230.31 65.16 230.31 65.59L230.35 65.63L230.37 65.65Q230.32 66.31 230.03 66.97L230.07 67.02L230.03 66.98Q229.25 68.48 225.73 68.81ZM232.01 72.48L232.04 72.50L232.41 72.45L232.81 72.32L233.17 72.21L233.14 72.17Q233.39 71.71 233.48 71.57L233.61 71.69L233.65 71.73Q233.71 70.08 233.37 68.84L233.54 69.01L233.48 68.95Q231.76 61.66 232.09 53.71L232.20 53.82L232.18 53.80Q232.50 46.18 234.74 38.80L234.63 38.69L234.62 38.68Q233.49 39.45 231.92 40.35L231.92 40.36L231.97 40.41Q232.28 39.53 232.80 37.63L232.69 37.51L232.68 37.51Q229.54 39.17 226.21 39.55L226.26 39.60L226.32 39.66Q225.77 45.06 225.68 51.25L225.83 51.39L225.69 51.26Q225.75 58.79 225.85 63.08L225.75 62.98L225.75 62.98Q225.87 65.24 223.68 65.43L223.56 65.31L223.71 65.46Q221.55 65.59 219.46 63.54L219.33 63.41L219.40 63.48Q216.84 66.63 215.65 68.58L215.58 68.52L215.71 68.64Q216.46 69.39 217.75 69.68L217.76 69.69L217.74 69.68Q217.66 69.88 217.33 70.17L217.30 70.14L217.24 70.08Q219.15 71.36 221.62 71.70L221.54 71.62L221.50 71.57Q222.10 71.75 226.22 72.13L226.17 72.08L226.20 72.11Q230.22 72.40 231.93 72.40Z"/><path d="M9 16 C195 76,192 82,383 42" stroke="#70dbc0" fill="none"/><path fill="#d7315a" d="M270.40 67.42L270.47 67.49L270.40 67.43Q272.70 64.39 278.64 55.30L278.67 55.33L278.65 55.31Q283.70 47.56 287.27 43.47L287.25 43.45L287.30 43.50Q284.70 43.90 282.09 43.90L282.19 44.01L282.01 43.82Q275.47 43.85 270.47 41.61L270.55 41.69L270.50 41.64Q269.77 39.34 268.92 37.39L268.84 37.32L268.74 37.22Q274.49 39.97 281.58 40.11L281.69 40.22L281.63 40.16Q288.02 40.22 294.49 37.84L294.44 37.78L294.55 37.90Q293.94 38.81 293.56 39.81L293.61 39.86L292.98 41.94L292.98 41.94Q289.11 46.45 284.12 53.73L284.09 53.71L279.97 59.77L279.88 59.68Q277.82 62.76 275.53 65.61L275.66 65.73L275.58 65.66Q279.69 64.87 283.83 64.96L283.89 65.02L283.91 65.04Q288.02 65.11 291.97 66.25L291.99 66.27L292.54 68.20L292.53 68.19Q292.98 69.35 293.41 70.40L293.36 70.36L293.31 70.31Q287.40 68.25 280.97 68.48L280.98 68.49L281.03 68.54Q274.64 68.81 269.02 71.33L269.01 71.32L269.01 71.32Q269.63 70.13 270.53 67.56ZM268.31 72.24L268.30 72.22L268.25 72.18Q269.88 71.52 270.88 71.19L270.74 71.05L270.73 71.04Q270.52 72.11 269.66 74.02L269.71 74.06L269.71 74.07Q276.67 71.23 284.15 71.51L284.30 71.67L284.16 71.52Q292.05 71.81 298.34 75.28L298.45 75.39L298.35 75.30Q296.57 72.28 295.58 69.57L295.59 69.58L295.71 69.70Q295.00 69.32 293.09 68.61L293.16 68.67L293.14 68.65Q292.91 67.72 292.39 65.86L292.45 65.92L292.36 65.83Q287.23 64.41 280.85 64.65L280.87 64.67L280.89 64.69Q283.45 61.15 287.87 54.21L287.83 54.16L287.83 54.17Q292.44 47.06 294.82 43.88L294.76 43.82L294.91 43.97Q295.51 42.19 296.79 38.81L296.73 38.75L296.74 38.76Q295.87 39.17 294.06 39.93L294.10 39.97L294.10 39.97Q294.59 39.03 295.49 37.13L295.32 36.96L295.43 37.07Q288.83 39.79 281.69 39.69L281.58 39.59L281.53 39.54Q274.18 39.51 267.99 36.37L267.96 36.33L267.97 36.35Q269.43 39.33 270.33 42.13L270.32 42.13L270.39 42.19Q271.62 42.71 272.62 43.00L272.59 42.97L272.65 43.02Q273.02 43.92 273.35 45.73L273.35 45.73L273.41 45.78Q278.08 47.12 284.17 46.89L284.06 46.77L284.05 46.76Q281.12 50.83 276.98 57.07L276.90 56.99L270.13 67.54L270.12 67.53Q269.49 68.94 268.20 72.13Z"/><path fill="#89e72b" d="M338.60 56.73L338.66 56.80L338.62 56.76Q334.19 64.61 329.91 69.56L329.93 69.58L330.04 69.69Q327.68 70.18 324.63 71.27L324.61 71.25L324.70 71.35Q330.68 64.19 336.63 53.67L336.63 53.68L336.71 53.75Q331.05 45.14 323.58 37.14L323.52 37.09L323.43 37.00Q327.13 38.56 329.99 39.18L330.02 39.21L330.09 39.28Q335.91 45.81 338.96 50.76L338.95 50.76L338.91 50.72Q341.93 45.08 346.84 39.56L346.87 39.59L346.92 39.64Q348.84 39.19 352.84 38.24L352.99 38.39L352.98 38.37Q345.21 46.26 340.88 53.68L340.93 53.74L340.88 53.69Q347.50 64.69 352.97 70.40L352.99 70.42L352.94 70.37Q349.59 69.25 346.97 68.96L347.06 69.05L347.03 69.02Q343.48 65.24 338.58 56.72ZM347.01 69.52L346.95 69.46L346.94 69.46Q347.25 69.43 347.82 69.57L347.99 69.75L348.00 69.75Q348.97 70.67 350.87 72.67L350.71 72.51L350.89 72.69Q354.97 73.58 358.78 75.30L358.79 75.31L358.76 75.28Q349.83 67.02 343.46 56.07L343.39 56.01L343.57 56.19Q348.24 47.86 355.62 39.30L355.52 39.20L355.52 39.20Q353.68 39.98 350.97 40.65L350.99 40.67L351.12 40.80Q352.23 39.67 354.41 37.43L354.29 37.31L354.39 37.41Q351.39 38.50 346.78 39.22L346.76 39.20L346.72 39.16Q342.38 43.86 339.14 49.24L339.26 49.35L339.23 49.32Q338.04 47.28 336.56 45.42L336.53 45.39L333.67 41.72L333.20 41.73L333.29 41.81Q332.98 41.69 332.69 41.59L332.84 41.74L332.76 41.66Q331.83 40.55 329.97 38.59L330.10 38.72L330.05 38.67Q325.20 37.49 321.97 35.77L322.13 35.94L322.08 35.89Q330.58 45.05 336.29 53.85L336.11 53.68L336.20 53.77Q330.53 63.94 323.34 72.17L323.46 72.29L323.49 72.32Q325.01 71.37 327.68 70.65L327.82 70.80L326.21 72.61L326.02 72.42Q326.05 72.45 324.38 74.11L324.44 74.17L324.35 74.09Q328.12 72.76 332.07 72.14L332.15 72.22L332.19 72.27Q337.24 66.65 340.47 60.70L340.38 60.61L340.34 60.57Q343.65 65.97 347.02 69.54Z"/></svg>